<svg xmlns="http://www.w3.org/2000/svg" viewBox="0 0 100 100" role="img" aria-label="スマコウバ">
  <defs>
    <linearGradient id="g" x1="0" y1="0" x2="1" y2="1">
      <stop offset="0" stop-color="#6366f1"/>
      <stop offset="0.5" stop-color="#3b82f6"/>
      <stop offset="1" stop-color="#06b6d4"/>
    </linearGradient>
  </defs>
  <rect width="100" height="100" rx="24" fill="url(#g)"/>
  <text x="47" y="72" text-anchor="middle" fill="#ffffff" font-size="68" font-weight="900"
        font-family="'Hiragino Sans','Noto Sans JP',sans-serif">ス</text>
  <!-- 工場アイコン（右下） -->
  <g transform="translate(58 59) scale(1.15)" fill="#ffffff">
    <path d="M2 20a2 2 0 0 0 2 2h16a2 2 0 0 0 2-2V8l-7 5V8l-7 5V4a2 2 0 0 0-2-2H4a2 2 0 0 0-2 2Z"/>
    <rect x="6.4" y="16.5" width="2.6" height="3.4" rx="0.5" fill="#3b82f6"/>
    <rect x="11" y="16.5" width="2.6" height="3.4" rx="0.5" fill="#3b82f6"/>
    <rect x="15.6" y="16.5" width="2.6" height="3.4" rx="0.5" fill="#3b82f6"/>
  </g>
</svg>
